# xmcd
#
# Track frame offsets:
#	150
#	19591
#	36251
#	64289
#	91068
#	107496
#	122331
#	137170
#	155110
#	177364
#	198233
#	220805
#	241529
#	271205
#	291394
#	319683
#	335481
#
# Disc length: 4741
#
# Revision: 2
# Processed by: cddbd v1.5.1PL0 Copyright (c) Steve Scherf et al.
# Submitted via: audiograbber 1.80
# Normalized: r1:DSETVAR2,TDELIM( - )
#
DISCID=ef128311
DTITLE=Various Artist - Top HITs 6
DYEAR=1900
DGENRE=
TTITLE0=Enrique Iglesias - Hero (radio edit)
TTITLE1=Daddy Dj - The Girl in Red
TTITLE2=Britney Spears - I'm Slave for You (club mix)
TTITLE3=Rick Astley - Sleeping - (extd. mix)
TTITLE4=Dj Otzi - Hey Baby
TTITLE5=D-Code - The Colour of Love
TTITLE6=Army of Lovers - Hands Up
TTITLE7=Kaci - Tu Amor
TTITLE8=Tarkan - Uzak
TTITLE9=Nicole Kidman and Ewan McGregor - Come What May
TTITLE10=Michael Jackson - Cry
TTITLE11=Destiny's Child - Emotion
TTITLE12=Mojo - On Fire
TTITLE13=Tomy or Zox - Music Makes Me Happy
TTITLE14=Titiyo - 1989 (funkster club mix)
TTITLE15=Vanessa Amorosi - Turn To Me
TTITLE16=BackStreet Boys - Drowning
EXTD=
EXTT0=
EXTT1=
EXTT2=
EXTT3=
EXTT4=
EXTT5=
EXTT6=
EXTT7=
EXTT8=
EXTT9=
EXTT10=
EXTT11=
EXTT12=
EXTT13=
EXTT14=
EXTT15=
EXTT16=
PLAYORDER=
